# xmcd
#
# Track frame offsets: 
#        150
#        6605
#        17323
#        27716
#        37386
#        52579
#        64200
#        73002
#        88576
#        111859
#        121399
#        132759
#        152838
#        167825
#        186501
#        200729
#        217565
#        230590
#        247974
#
# Disc length: 3434 seconds
#
# Revision: 0
# Processed by: cddbd v1.5.2PL0 Copyright (c) Steve Scherf et al.
# Submitted via: ExactAudioCopyFreeDBPlugin 1.0
#
DISCID=0e0d6813
DTITLE=Kenny Rogers - The Gambler's Last  Deal
DYEAR=2019
DGENRE=Country
TTITLE0=Lady Luck
TTITLE1=Ruby
TTITLE2=Walking my Baby
TTITLE3=Something's Burning
TTITLE4=Just Dropped In
TTITLE5=But You Know I Love You
TTITLE6=Tell It All Brother
TTITLE7=Lucille
TTITLE8=Through the Years-You Decorated My Life-She Believes in Me
TTITLE9=Every Time Two Fools Collide
TTITLE10=I Feel Sorry for Anyone Who isn't Me Tonight
TTITLE11=Coward of the County-Six Pack
TTITLE12=We've Got Tonight
TTITLE13=Daytime Friends
TTITLE14=The Gambler
TTITLE15=Lady
TTITLE16=Islands in the Stream
TTITLE17=You Can't Make Old Friends
TTITLE18=Blaze of Glory
EXTD=
EXTT0=
EXTT1=
EXTT2=
EXTT3=
EXTT4=
EXTT5=
EXTT6=
EXTT7=
EXTT8=
EXTT9=
EXTT10=
EXTT11=
EXTT12=
EXTT13=
EXTT14=
EXTT15=
EXTT16=
EXTT17=
EXTT18=
PLAYORDER=
